<?xml version="1.0" encoding="UTF-8" standalone="no" ?>
<!DOCTYPE svg PUBLIC "-//W3C//DTD SVG 1.1//EN" "http://www.w3.org/Graphics/SVG/1.1/DTD/svg11.dtd">
<svg xmlns="http://www.w3.org/2000/svg" xmlns:xlink="http://www.w3.org/1999/xlink" version="1.1" width="1280" height="1024" viewBox="0 0 1280 1024" xml:space="preserve">
<desc>Created with Fabric.js 4.4.0</desc>
<defs>
</defs>
<g transform="matrix(1 0 0 1 640 512)" id="background-logo"  >
<rect style="stroke: none; stroke-width: 0; stroke-dasharray: none; stroke-linecap: butt; stroke-dashoffset: 0; stroke-linejoin: miter; stroke-miterlimit: 4; fill: rgb(255,255,255); fill-opacity: 0; fill-rule: nonzero; opacity: 1;"  paint-order="stroke"  x="-640" y="-512" rx="0" ry="0" width="1280" height="1024" />
</g>
<g transform="matrix(4.436998127730394 0 0 4.436998127730394 640.4762585812359 480.3753478000833)" id="shape-cb096b13-d702-4c5b-a398-50192a1158d7"  >
<g style=""  paint-order="stroke"   >
		<g transform="matrix(1 0 0 1 0 0)" id="Layer_1"  >
<polygon style="stroke: none; stroke-width: 1; stroke-dasharray: none; stroke-linecap: butt; stroke-dashoffset: 0; stroke-linejoin: miter; stroke-miterlimit: 4; fill: rgb(60,60,60); fill-rule: nonzero; opacity: 1;"  paint-order="stroke"  points="100,100 0,100 0,95.12 95.12,95.12 95.12,-95.12 -95.12,-95.12 -95.12,0 -100,0 -100,-100 100,-100 100,100 " />
</g>
</g>
</g>
<g transform="matrix(2.3561806599359922 0 0 2.3561806599359922 640 377.265123684345)" id="logo-logo"  >
<g style=""  paint-order="stroke"   >
		<g transform="matrix(1.7973117580350217 0 0 1.7973117580350217 -40.39437535466328 -2.3861908906093277)"  >
<path style="stroke: none; stroke-width: 1; stroke-dasharray: none; stroke-linecap: butt; stroke-dashoffset: 0; stroke-linejoin: miter; stroke-miterlimit: 4; fill: rgb(28,104,104); fill-rule: nonzero; opacity: 1;"  paint-order="stroke"  transform=" translate(-227.525116, -248.6723556)" d="M 241.9464569 242.3180084 C 240.8263245 237.98754879999998 234.7926636 234.3906402 234.7926636 234.3906402 C 234.7926636 234.3906402 227.0855408 246.29275510000002 213.1037751 248.5554046 C 217.0295106 259.4429626 228.83457950000002 262.954071 228.83457950000002 262.954071 C 231.0329285 253.9484863 234.4610596 249.375061 241.9464569 242.3180084 z" stroke-linecap="round" />
</g>
		<g transform="matrix(1.7973117580350217 0 0 1.7973117580350217 -0.00008439786853386977 22.76000690261739)"  >
<path style="stroke: none; stroke-width: 1; stroke-dasharray: none; stroke-linecap: butt; stroke-dashoffset: 0; stroke-linejoin: miter; stroke-miterlimit: 4; fill: rgb(28,104,104); fill-rule: nonzero; opacity: 1;"  paint-order="stroke"  transform=" translate(-249.99995420000002, -262.6633606)" d="M 259.0212402 253.6483307 C 261.68099970000003 251.2456665 261.7679443 247.0931397 259.20553590000003 244.5868683 C 259.187561 244.5693054 259.1695862 244.551651 259.15155030000005 244.5340881 C 257.20840450000003 246.47657769999998 253.91621400000005 249.7082977 249.99995420000005 253.3196716 C 246.08378600000006 249.7082977 242.79159540000003 246.47657769999998 240.84846490000004 244.5340881 C 240.83039850000003 244.551651 240.81242360000005 244.5693054 240.79446400000003 244.5868683 C 238.23207080000003 247.0931397 238.31898490000003 251.2456665 240.97875970000004 253.6483307 C 242.32682790000004 254.8661804 243.76043690000003 256.2050171 245.22900380000004 257.6172791 C 239.05940240000004 263.0364991 232.16891470000004 268.5219727 226.68621820000004 271.3869019 C 226.68621820000004 271.3869019 229.14282220000004 277.5716858 235.24354550000004 280.7926331 C 236.64683530000005 276.9335633 243.15008540000005 269.3477784 249.99995420000005 262.34722899999997 C 256.84991450000007 269.34777829999996 263.35317990000004 276.9335632 264.7564697 280.7926331 C 270.8571777 277.5716858 273.3136902 271.3869019 273.3136902 271.3869019 C 267.8310852 268.5219727 260.9406128 263.0364991 254.7709961 257.6172791 C 256.239563 256.2050171 257.6731567 254.8661804 259.0212402 253.6483307 z" stroke-linecap="round" />
</g>
		<g transform="matrix(1.7973117580350217 0 0 1.7973117580350217 40.39431637467453 -2.386190710878253)"  >
<path style="stroke: none; stroke-width: 1; stroke-dasharray: none; stroke-linecap: butt; stroke-dashoffset: 0; stroke-linejoin: miter; stroke-miterlimit: 4; fill: rgb(28,104,104); fill-rule: nonzero; opacity: 1;"  paint-order="stroke"  transform=" translate(-272.4748535, -248.67235569999997)" d="M 265.2072449 234.3906403 C 265.2072449 234.3906403 259.17367559999997 237.9875489 258.05346679999997 242.3180085 C 265.53894039999994 249.37506109999998 268.96698 253.94848639999998 271.16543579999995 262.95407109999996 C 271.16543579999995 262.95407109999996 282.9704894999999 259.44296269999995 286.89624019999997 248.55540469999997 C 272.9144592 246.2927551 265.2072449 234.3906403 265.2072449 234.3906403 z" stroke-linecap="round" />
</g>
		<g transform="matrix(1.7973117580350217 0 0 1.7973117580350217 0 2.842171e-14)"  >
<path style="stroke: none; stroke-width: 1; stroke-dasharray: none; stroke-linecap: butt; stroke-dashoffset: 0; stroke-linejoin: miter; stroke-miterlimit: 4; fill: rgb(28,104,104); fill-rule: nonzero; opacity: 1;"  paint-order="stroke"  transform=" translate(-250.0000011578348, -250.00000000000003)" d="M 328.5517883 243.5991669 C 329.3219909 243.205719 328.3681335 239.7971192 326.4211425 235.986084 C 324.4740905 232.17495730000002 322.2713012 229.4044953 321.50100699999996 229.79801940000002 L 301.7724914 242.41848750000003 L 301.7724914 204.37628170000002 C 301.7724914 204.37513730000003 301.77273549999995 204.37390130000003 301.77273549999995 204.3727569 C 301.77273549999995 198.4391784 278.59304799999995 193.6268005 249.99995409999997 193.6268005 C 221.40686019999998 193.6268005 198.22726429999997 198.4391784 198.22726429999997 204.3727569 C 198.22726429999997 204.3739013 198.22750839999998 204.3751373 198.22750839999998 204.37628170000002 L 198.22750839999998 242.41848750000003 L 178.49899279999997 229.79801940000002 C 177.72868339999997 229.4044952 175.52592459999997 232.17495730000002 173.57885729999998 235.986084 C 171.63188159999999 239.7971192 170.67799369999997 243.20571900000002 171.4482268 243.5991669 L 193.3032073 270.6217346 C 196.4892577 274.5611877 198.2275084 279.4744873 198.2275084 284.5411682 C 198.2275084 295.14099120000003 190.7063292 304.21984860000003 180.3065947 306.26928710000004 C 180.13153060000002 306.30374140000004 179.9564513 306.33840940000005 179.7814635 306.37310790000004 L 179.7813719 306.37319950000006 L 320.21862780000004 306.37319950000006 L 320.2185362 306.37310790000004 C 320.0435484 306.33840940000005 319.8684691 306.30374140000004 319.6933897 306.26928710000004 C 309.2935789 304.21984860000003 301.7724913 295.14099120000003 301.7724913 284.5411682 C 301.7724913 279.4744873 303.5106505 274.5611877 306.6968077 270.6217346 L 328.5517883 243.5991669 z M 249.9999542 197.6608734 C 272.4013061 197.6608734 290.56054689999996 200.66621400000002 290.56054689999996 204.3727569 C 290.56054689999996 208.07939140000002 272.40130619999996 211.0885772 249.99995419999996 211.0885772 C 227.59867859999997 211.0885772 209.43946839999995 208.0793914 209.43946839999995 204.3727569 C 209.4394684 200.666214 227.5986786 197.6608734 249.9999542 197.6608734 z M 296.4237671 298.9187622 C 296.4237671 300.8124695 294.7685242 302.2764587 292.88830570000005 302.0513916 C 292.86761480000007 302.0489502 292.84704590000007 302.04650879999997 292.8263855000001 302.0439758 C 291.3222656000001 301.8642273 290.1597290000001 300.6387024 290.05596920000005 299.1274109 L 288.54803460000005 277.1538086 L 287.38803090000005 298.3912659 C 287.29809560000007 300.03750610000003 285.85910020000006 301.28475960000003 284.21774280000005 301.1287232 C 284.19937120000003 301.1270142 284.1809691 301.1252137 284.16259750000006 301.1235047 C 282.74713120000007 300.9891968 281.63198840000007 299.86071780000003 281.5267638000001 298.44281010000003 L 280.8148497000001 288.84884650000004 C 280.3457640000001 295.3668824 274.7513731000001 300.3018799 268.2246092000001 299.97641000000004 C 268.1481321000001 299.97265630000004 268.0716856000001 299.96881110000004 267.99520860000007 299.96505750000006 C 261.9244689000001 299.66619890000004 257.0435484000001 294.8610841000001 256.62738020000006 288.7972108000001 L 255.99530010000007 279.58673110000007 L 255.09027080000007 296.1550905000001 C 254.98684670000006 298.0492861000001 253.41763290000006 299.53033460000006 251.52064490000006 299.52423110000007 L 251.45317050000006 299.52404800000005 C 249.59237640000006 299.51809710000003 248.04954500000005 298.08096330000006 247.91189550000004 296.22525040000005 L 247.32196020000004 288.2747499000001 L 247.30799840000003 288.4688722000001 C 246.86152620000004 294.6722108000001 241.82881140000003 299.55902110000005 235.61427280000004 299.80206310000005 C 235.53739900000005 299.80508430000003 235.46052520000003 299.80810560000003 235.38372780000003 299.81112680000007 C 228.74993870000003 300.07476820000005 223.11332680000004 295.0123902000001 222.68621800000003 288.3870851000001 L 222.30233740000003 282.4301454000001 L 221.33610510000003 297.0168153000001 C 221.19763160000002 299.10855110000006 219.55677770000003 300.7879640000001 217.46893290000003 300.97512830000005 L 217.38807660000003 300.9823304 C 214.99266030000004 301.1971131 212.89349350000003 299.39007580000003 212.74946580000002 296.98934940000004 L 211.41569500000003 274.7604676 L 209.99246200000002 299.07366950000005 C 209.90267930000002 300.60824590000004 208.7263335 301.85809330000006 207.19993580000002 302.04071050000005 L 207.13212570000002 302.0487977 C 205.24053940000002 302.27508550000005 203.57614120000002 300.7978517 203.57614120000002 298.8927918 L 203.57614120000002 213.5598755 C 203.57614120000002 211.45980840000001 205.5953368 209.9499817 207.60972580000004 210.543747 L 207.67613200000002 210.5633545 C 208.96252420000002 210.9425812 209.87261940000002 212.0882111 209.950958 213.4270477 L 211.4156949 238.448883 L 212.725845 216.61302179999998 C 212.87412989999999 214.14172359999998 215.1308133 212.34342949999998 217.57278409999998 212.7505187 L 217.65342679999998 212.7640075 C 219.57490509999997 213.0843353 221.02362029999998 214.6841888 221.1523739 216.62789909999998 L 222.30233729999998 233.9885253 L 222.82240259999998 225.9196624 C 223.24870259999997 219.3059692 228.94404569999998 214.2968597 235.55953939999998 214.6948089 C 235.63616899999997 214.6994628 235.71289019999998 214.7040405 235.78968769999997 214.7085266 C 241.79989579999997 215.0638275 246.60786399999998 219.8389587 247.04003869999997 225.8441009 L 247.32196009999996 229.7608489 L 248.18124349999997 218.18069450000002 C 248.30941729999998 216.452896 249.74375879999997 215.11373890000002 251.47628739999996 215.10426320000002 L 251.55586199999996 215.10377490000002 C 253.32743789999995 215.09413130000002 254.79510459999997 216.47618090000003 254.89175369999995 218.24514760000002 L 255.99529979999994 238.44888300000002 L 256.89517159999997 225.33651730000003 C 257.2941889 219.52204890000002 261.9150691 214.91145320000004 267.7265925 214.47210690000003 C 267.8374629 214.46376030000002 267.94815009999996 214.45527650000002 268.05859319999996 214.44677730000004 C 274.53283639999995 213.94679260000004 280.18276919999994 218.78776550000003 280.64892519999995 225.26454160000003 L 280.81484929999993 227.56983950000003 L 281.7448114999999 215.03686530000002 C 281.8400568999999 213.75383000000002 282.7902826999999 212.69734200000002 284.0560602999999 212.46728520000002 L 284.1098932999999 212.45747380000003 C 285.7651361999999 212.15650940000003 287.3092035999999 213.37533570000002 287.4009393999999 215.05508430000003 L 288.54803409999994 236.05552680000002 L 290.10555969999996 213.35972600000002 C 290.19576969999997 212.04589850000002 291.09350529999995 210.9267426 292.35644469999994 210.55363470000003 L 292.42214899999993 210.53419500000004 C 294.42010429999993 209.94393930000004 296.4237663999999 211.44134530000005 296.4237663999999 213.52467350000003 L 296.4237663999999 298.9187622 z" stroke-linecap="round" />
</g>
		<g transform="matrix(1.7973117580350217 0 0 1.7973117580350217 0.000011758310336063 -83.69230638841961)"  >
<path style="stroke: none; stroke-width: 1; stroke-dasharray: none; stroke-linecap: butt; stroke-dashoffset: 0; stroke-linejoin: miter; stroke-miterlimit: 4; fill: rgb(28,104,104); fill-rule: nonzero; opacity: 1;"  paint-order="stroke"  transform=" translate(-250.00000769999997, -203.4347305)" d="M 222.7394104 206.9917755 C 222.4029846 206.72830199999999 222.2246399 206.45266719999998 222.2246399 206.1729278 C 222.2246399 203.8177947 234.6611328 201.9126586 249.9999542 201.9126586 C 265.3388672 201.9126586 277.7753601 203.81779469999998 277.7753601 206.1729278 C 277.7753601 206.4526672 277.5970154 206.7283019 277.2605286 206.9917755 C 279.99676519999997 206.2904968 281.56549079999996 205.47982789999998 281.56549079999996 204.6082916 C 281.56549079999996 201.9936981 267.43460089999996 199.8776855 249.99995429999996 199.8776855 C 232.56538399999997 199.8776855 218.43452459999995 201.99369810000002 218.43452459999995 204.6082916 C 218.4345245 205.4798279 220.0032501 206.2904968 222.7394104 206.9917755 z" stroke-linecap="round" />
</g>
</g>
</g>
<g transform="matrix(1.9211538461538462 0 0 1.9211538461538462 640.053004374505 749.968118910075)" id="text-logo-path-group"  >
<g style=""  paint-order="stroke"   >
		<g transform="matrix(1 0 0 1 0 0)" id="text-logo-path-0"  >
<path style="stroke: none; stroke-width: 0; stroke-dasharray: none; stroke-linecap: butt; stroke-dashoffset: 0; stroke-linejoin: miter; stroke-miterlimit: 4; fill: rgb(60,60,60); fill-rule: nonzero; opacity: 1;"  paint-order="stroke"  transform=" translate(-203.38, 25.33)" d="M 1.56 -41.52 L 17.46 -41.48 L 12.42 -39.06 L 12.42 -11.13 C 12.54 -7.15 13.79 -3.95 16.25 -1.52 C 18.59 0.78 21.45 1.95 24.84 1.95 L 25.27 1.95 L 28.13 -9.06 C 25.43 -9.69 24.06 -11.56 24.06 -14.65 C 24.06 -15.08 24.1 -15.55 24.14 -16.05 L 24.14 -41.41 L 36.76 -41.41 L 38.2 -53.13 L 2.73 -53.13 Z M 51.43 -19.45 L 55.73 -10.27 L 55.73 0.12 L 66.67 0.04 L 66.71 -13.91 L 72.84 -16.8 L 75.3 -12.11 C 79.87 -4.41 84.17 -0.12 88.27 0.7 L 94.56 1.88 L 95.46 -10.16 C 91.28 -10.7 88.04 -12.77 85.73 -16.37 L 82.65 -21.29 C 86.32 -22.89 88.86 -24.34 90.3 -25.59 C 91.75 -26.8 92.84 -29.22 93.58 -32.85 L 93.66 -48.55 C 92.76 -51.33 91.16 -52.85 88.78 -53.13 L 55.11 -53.13 L 52.65 -41.48 L 61.08 -41.52 L 55.73 -38.55 L 55.65 -22.11 Z M 66.71 -26.45 L 66.71 -41.48 L 82.65 -41.48 L 82.65 -36.09 C 82.65 -33.79 81.24 -32.11 78.39 -31.05 Z M 122.2 -53.75 L 110.21 -51.68 L 109.55 -44.45 C 109.47 -42.5 109.43 -40.63 109.43 -38.83 C 109.43 -28.91 110.45 -21.13 112.52 -15.47 C 114.94 -8.79 118.03 -4.34 121.78 -2.15 C 125.33 -0.08 130.45 0.94 137.13 0.94 L 138.34 0.94 L 140.8 0.39 L 142.83 -6.68 L 142.83 -0.23 L 154.16 -1.37 L 154.16 -52.54 L 142.83 -53.2 L 142.87 -13.2 C 140.02 -12.73 137.48 -12.5 135.33 -12.5 C 131.19 -12.5 128.34 -13.4 126.78 -15.16 C 124.43 -17.85 122.71 -21.56 121.62 -26.21 C 121.15 -28.16 120.92 -30.94 120.92 -34.49 C 120.92 -39.41 121.35 -45.82 122.2 -53.75 Z M 169.34 0.2 L 180.71 0.2 L 180.71 -36.68 C 184.46 -35.63 188.4 -33.4 192.58 -29.96 C 196.72 -26.48 199.19 -23.75 199.97 -21.72 C 200.75 -19.69 201.14 -17.77 201.14 -16.05 L 201.14 -15.9 C 201.18 -15.47 201.22 -15.08 201.22 -14.69 C 201.22 -12.3 200.08 -11.05 197.86 -10.86 L 197.86 0.2 C 198.6 0.23 199.26 0.23 199.93 0.23 C 204.73 0.23 207.97 -0.74 209.65 -2.73 C 211.41 -4.8 212.27 -6.72 212.27 -8.52 L 212.27 -8.59 C 212.27 -8.75 212.27 -8.91 212.23 -9.1 L 212.23 -52.93 L 200.98 -52.93 L 201.02 -33.71 L 200.47 -35.27 C 197.94 -39.02 195.47 -41.72 193.09 -43.4 C 190.71 -45.04 187 -46.52 182.04 -47.85 L 180.71 -44.57 L 180.75 -53.01 L 169.42 -53.01 Z M 225.62 -6.88 L 233.67 1.64 C 238.04 -0.78 241.52 -3.09 244.1 -5.27 C 246.64 -7.46 249.17 -10.04 251.64 -12.97 L 264.02 3.95 L 273.86 -3.91 L 259.68 -22.93 C 266.28 -31.37 271.32 -40.12 274.8 -49.18 L 263.9 -53.55 C 261.21 -45.59 257.57 -38.32 253 -31.72 L 236.05 -54.61 L 226.67 -47.27 L 245.39 -22.3 C 241.13 -17.89 234.57 -12.73 225.62 -6.88 Z M 291.59 -3.95 L 301.62 -3.91 L 301.62 -16.25 L 291.62 -16.25 Z M 322.12 0.08 L 343.41 0.08 L 344.04 -10.82 L 339.66 -10.82 L 339.66 -41.88 L 343.1 -41.88 L 344.66 -53.13 L 323.37 -53.13 L 322.24 -41.88 L 332.75 -41.88 L 327.82 -39.1 L 327.75 -10.86 L 323.18 -10.9 Z M 360.39 -50.86 L 360.39 -5.9 C 361.06 -2.03 363.44 -0.12 367.54 -0.12 L 397.89 -0.12 C 402.15 -0.23 404.57 -1.76 405.2 -4.61 L 405.2 -41.09 C 405.2 -48.36 403.71 -52.42 400.7 -53.24 L 374.92 -53.24 L 371.88 -48.13 L 371.88 -53.24 Z M 371.88 -11.64 L 371.88 -41.72 L 393.67 -41.72 L 393.67 -11.64 Z" stroke-linecap="round" />
</g>
</g>
</g>
</svg>